<?xml version="1.0" encoding="utf-8" ?>
<svg baseProfile="full" height="100%" version="1.1" viewBox="-120.0,-60,300.0,500" width="100%" xmlns="http://www.w3.org/2000/svg" xmlns:ev="http://www.w3.org/2001/xml-events" xmlns:xlink="http://www.w3.org/1999/xlink"><defs /><rect fill="lightgray" height="10" stroke="none" width="10" x="0" y="0" /><rect fill="gray" height="10" stroke="none" width="10" x="0" y="10" /><rect fill="lightgray" height="10" stroke="none" width="10" x="0" y="20" /><rect fill="gray" height="10" stroke="none" width="10" x="0" y="30" /><rect fill="gray" height="10" stroke="none" width="10" x="10" y="0" /><rect fill="lightgray" height="10" stroke="none" width="10" x="10" y="10" /><rect fill="gray" height="10" stroke="none" width="10" x="10" y="20" /><rect fill="lightgray" height="10" stroke="none" width="10" x="10" y="30" /><rect fill="lightgray" height="10" stroke="none" width="10" x="20" y="0" /><rect fill="gray" height="10" stroke="none" width="10" x="20" y="10" /><rect fill="lightgray" height="10" stroke="none" width="10" x="20" y="20" /><rect fill="gray" height="10" stroke="none" width="10" x="20" y="30" /><rect fill="gray" height="10" stroke="none" width="10" x="30" y="0" /><rect fill="lightgray" height="10" stroke="none" width="10" x="30" y="10" /><rect fill="gray" height="10" stroke="none" width="10" x="30" y="20" /><rect fill="lightgray" height="10" stroke="none" width="10" x="30" y="30" /><g><line stroke="black" stroke-linecap="square" x1="0" x2="0" y1="0" y2="10" /><line stroke="black" stroke-linecap="square" x1="0" x2="10" y1="0" y2="0" /><line stroke="black" stroke-linecap="square" x1="0" x2="0" y1="10" y2="20" /><line stroke="black" stroke-linecap="square" x1="0" x2="0" y1="20" y2="30" /><line stroke="black" stroke-linecap="square" x1="0" x2="0" y1="30" y2="40" /><line stroke="black" stroke-linecap="square" x1="0" x2="10" y1="40" y2="40" /><line stroke="black" stroke-linecap="square" x1="10" x2="20" y1="0" y2="0" /><line stroke="black" stroke-linecap="square" x1="10" x2="20" y1="40" y2="40" /><line stroke="black" stroke-linecap="square" x1="20" x2="30" y1="0" y2="0" /><line stroke="black" stroke-linecap="square" x1="20" x2="30" y1="40" y2="40" /><line stroke="black" stroke-linecap="square" x1="40" x2="40" y1="0" y2="10" /><line stroke="black" stroke-linecap="square" x1="30" x2="40" y1="0" y2="0" /><line stroke="black" stroke-linecap="square" x1="40" x2="40" y1="10" y2="20" /><line stroke="black" stroke-linecap="square" x1="40" x2="40" y1="20" y2="30" /><line stroke="black" stroke-linecap="square" x1="40" x2="40" y1="30" y2="40" /><line stroke="black" stroke-linecap="square" x1="30" x2="40" y1="40" y2="40" /></g><text font-family="['Arial', 'Helvetica', 'sans-serif']" font-size="10" text-anchor="middle" x="20" y="50">*1</text><g /><rect fill="red" height="10" stroke="none" width="10" x="-90.0" y="110" /><rect fill="red" height="10" stroke="none" width="10" x="-80.0" y="100" /><rect fill="red" height="10" stroke="none" width="10" x="-90.0" y="100" /><rect fill="red" height="10" stroke="none" width="10" x="-80.0" y="110" /><g><line stroke="none" stroke-linecap="square" x1="-90.0" x2="-90.0" y1="110" y2="120" /><line stroke="none" stroke-linecap="square" x1="-90.0" x2="-80.0" y1="120" y2="120" /><line stroke="none" stroke-linecap="square" x1="-70.0" x2="-70.0" y1="100" y2="110" /><line stroke="none" stroke-linecap="square" x1="-80.0" x2="-70.0" y1="100" y2="100" /><line stroke="none" stroke-linecap="square" x1="-90.0" x2="-90.0" y1="100" y2="110" /><line stroke="none" stroke-linecap="square" x1="-90.0" x2="-80.0" y1="100" y2="100" /><line stroke="none" stroke-linecap="square" x1="-70.0" x2="-70.0" y1="110" y2="120" /><line stroke="none" stroke-linecap="square" x1="-80.0" x2="-70.0" y1="120" y2="120" /></g><rect fill="#16263d" height="10" stroke="none" width="10" x="-80.0" y="120" /><rect fill="#2d5f6b" height="10" stroke="none" width="10" x="-70.0" y="120" /><rect fill="#16263d" height="10" stroke="none" width="10" x="-60.0" y="120" /><rect fill="#2d5f6b" height="10" stroke="none" width="10" x="-60.0" y="110" /><rect fill="#16263d" height="10" stroke="none" width="10" x="-70.0" y="110" /><rect fill="#2d5f6b" height="10" stroke="none" width="10" x="-70.0" y="100" /><rect fill="#16263d" height="10" stroke="none" width="10" x="-60.0" y="100" /><rect fill="#2d5f6b" height="10" stroke="none" width="10" x="-60.0" y="130" /><rect fill="#16263d" height="10" stroke="none" width="10" x="-70.0" y="130" /><rect fill="#2d5f6b" height="10" stroke="none" width="10" x="-80.0" y="130" /><rect fill="#16263d" height="10" stroke="none" width="10" x="-90.0" y="130" /><rect fill="#2d5f6b" height="10" stroke="none" width="10" x="-90.0" y="120" /><g><line stroke="#2e7597" stroke-linecap="square" x1="-80.0" x2="-70.0" y1="120" y2="120" /><line stroke="#2e7597" stroke-linecap="square" x1="-50.0" x2="-50.0" y1="120" y2="130" /><line stroke="#2e7597" stroke-linecap="square" x1="-50.0" x2="-50.0" y1="110" y2="120" /><line stroke="#2e7597" stroke-linecap="square" x1="-70.0" x2="-70.0" y1="110" y2="120" /><line stroke="#2e7597" stroke-linecap="square" x1="-70.0" x2="-70.0" y1="100" y2="110" /><line stroke="#2e7597" stroke-linecap="square" x1="-70.0" x2="-60.0" y1="100" y2="100" /><line stroke="#2e7597" stroke-linecap="square" x1="-50.0" x2="-50.0" y1="100" y2="110" /><line stroke="#2e7597" stroke-linecap="square" x1="-60.0" x2="-50.0" y1="100" y2="100" /><line stroke="#2e7597" stroke-linecap="square" x1="-50.0" x2="-50.0" y1="130" y2="140" /><line stroke="#2e7597" stroke-linecap="square" x1="-60.0" x2="-50.0" y1="140" y2="140" /><line stroke="#2e7597" stroke-linecap="square" x1="-70.0" x2="-60.0" y1="140" y2="140" /><line stroke="#2e7597" stroke-linecap="square" x1="-80.0" x2="-70.0" y1="140" y2="140" /><line stroke="#2e7597" stroke-linecap="square" x1="-90.0" x2="-90.0" y1="130" y2="140" /><line stroke="#2e7597" stroke-linecap="square" x1="-90.0" x2="-80.0" y1="140" y2="140" /><line stroke="#2e7597" stroke-linecap="square" x1="-90.0" x2="-90.0" y1="120" y2="130" /><line stroke="#2e7597" stroke-linecap="square" x1="-90.0" x2="-80.0" y1="120" y2="120" /></g><text font-family="['Arial', 'Helvetica', 'sans-serif']" font-size="10" text-anchor="middle" x="-70.0" y="150">*3</text><line stroke="black" x1="-70.0" x2="20" y1="90" y2="60" /><line stroke="black" x1="-70.0" x2="20" y1="90" y2="60" /><line stroke="black" x1="-70.0" x2="20" y1="90" y2="60" /><line stroke="black" x1="-70.0" x2="20" y1="90" y2="60" /><rect fill="lightgray" height="10" stroke="none" width="10" x="-30.0" y="100" /><rect fill="lightgray" height="10" stroke="none" width="10" x="-20.0" y="130" /><rect fill="gray" height="10" stroke="none" width="10" x="-20.0" y="100" /><rect fill="gray" height="10" stroke="none" width="10" x="-30.0" y="130" /><g><line stroke="none" stroke-linecap="square" x1="-30.0" x2="-30.0" y1="100" y2="110" /><line stroke="none" stroke-linecap="square" x1="-30.0" x2="-20.0" y1="100" y2="100" /><line stroke="none" stroke-linecap="square" x1="-30.0" x2="-20.0" y1="110" y2="110" /><line stroke="none" stroke-linecap="square" x1="-10.0" x2="-10.0" y1="130" y2="140" /><line stroke="none" stroke-linecap="square" x1="-20.0" x2="-10.0" y1="130" y2="130" /><line stroke="none" stroke-linecap="square" x1="-20.0" x2="-10.0" y1="140" y2="140" /><line stroke="none" stroke-linecap="square" x1="-10.0" x2="-10.0" y1="100" y2="110" /><line stroke="none" stroke-linecap="square" x1="-20.0" x2="-10.0" y1="100" y2="100" /><line stroke="none" stroke-linecap="square" x1="-20.0" x2="-10.0" y1="110" y2="110" /><line stroke="none" stroke-linecap="square" x1="-30.0" x2="-30.0" y1="130" y2="140" /><line stroke="none" stroke-linecap="square" x1="-30.0" x2="-20.0" y1="130" y2="130" /><line stroke="none" stroke-linecap="square" x1="-30.0" x2="-20.0" y1="140" y2="140" /></g><rect fill="red" height="10" stroke="none" width="10" x="-30.0" y="110" /><rect fill="red" height="10" stroke="none" width="10" x="-30.0" y="120" /><rect fill="red" height="10" stroke="none" width="10" x="-20.0" y="110" /><rect fill="red" height="10" stroke="none" width="10" x="-20.0" y="120" /><g><line stroke="none" stroke-linecap="square" x1="-30.0" x2="-30.0" y1="110" y2="120" /><line stroke="none" stroke-linecap="square" x1="-30.0" x2="-20.0" y1="110" y2="110" /><line stroke="none" stroke-linecap="square" x1="-30.0" x2="-30.0" y1="120" y2="130" /><line stroke="none" stroke-linecap="square" x1="-30.0" x2="-20.0" y1="130" y2="130" /><line stroke="none" stroke-linecap="square" x1="-10.0" x2="-10.0" y1="110" y2="120" /><line stroke="none" stroke-linecap="square" x1="-20.0" x2="-10.0" y1="110" y2="110" /><line stroke="none" stroke-linecap="square" x1="-10.0" x2="-10.0" y1="120" y2="130" /><line stroke="none" stroke-linecap="square" x1="-20.0" x2="-10.0" y1="130" y2="130" /></g><rect fill="#16263d" height="10" stroke="none" width="10" x="0.0" y="120" /><rect fill="#2d5f6b" height="10" stroke="none" width="10" x="-10.0" y="120" /><rect fill="#16263d" height="10" stroke="none" width="10" x="-10.0" y="110" /><rect fill="#2d5f6b" height="10" stroke="none" width="10" x="0.0" y="110" /><rect fill="#16263d" height="10" stroke="none" width="10" x="0.0" y="100" /><rect fill="#2d5f6b" height="10" stroke="none" width="10" x="-10.0" y="100" /><rect fill="#16263d" height="10" stroke="none" width="10" x="-10.0" y="130" /><rect fill="#2d5f6b" height="10" stroke="none" width="10" x="0.0" y="130" /><g><line stroke="#2e7597" stroke-linecap="square" x1="10.0" x2="10.0" y1="120" y2="130" /><line stroke="#2e7597" stroke-linecap="square" x1="-10.0" x2="-10.0" y1="120" y2="130" /><line stroke="#2e7597" stroke-linecap="square" x1="-10.0" x2="-10.0" y1="110" y2="120" /><line stroke="#2e7597" stroke-linecap="square" x1="10.0" x2="10.0" y1="110" y2="120" /><line stroke="#2e7597" stroke-linecap="square" x1="10.0" x2="10.0" y1="100" y2="110" /><line stroke="#2e7597" stroke-linecap="square" x1="0.0" x2="10.0" y1="100" y2="100" /><line stroke="#2e7597" stroke-linecap="square" x1="-10.0" x2="-10.0" y1="100" y2="110" /><line stroke="#2e7597" stroke-linecap="square" x1="-10.0" x2="0.0" y1="100" y2="100" /><line stroke="#2e7597" stroke-linecap="square" x1="-10.0" x2="-10.0" y1="130" y2="140" /><line stroke="#2e7597" stroke-linecap="square" x1="-10.0" x2="0.0" y1="140" y2="140" /><line stroke="#2e7597" stroke-linecap="square" x1="10.0" x2="10.0" y1="130" y2="140" /><line stroke="#2e7597" stroke-linecap="square" x1="0.0" x2="10.0" y1="140" y2="140" /></g><text font-family="['Arial', 'Helvetica', 'sans-serif']" font-size="10" text-anchor="middle" x="-10.0" y="150">*2</text><line stroke="black" x1="-10.0" x2="20" y1="90" y2="60" /><line stroke="black" x1="-10.0" x2="20" y1="90" y2="60" /><line stroke="black" x1="-10.0" x2="20" y1="90" y2="60" /><line stroke="black" x1="-10.0" x2="20" y1="90" y2="60" /><rect fill="gray" height="10" stroke="none" width="10" x="30.0" y="110" /><rect fill="gray" height="10" stroke="none" width="10" x="60.0" y="120" /><rect fill="lightgray" height="10" stroke="none" width="10" x="30.0" y="100" /><rect fill="lightgray" height="10" stroke="none" width="10" x="40.0" y="130" /><rect fill="lightgray" height="10" stroke="none" width="10" x="60.0" y="130" /><rect fill="gray" height="10" stroke="none" width="10" x="60.0" y="100" /><rect fill="lightgray" height="10" stroke="none" width="10" x="60.0" y="110" /><rect fill="lightgray" height="10" stroke="none" width="10" x="50.0" y="100" /><rect fill="gray" height="10" stroke="none" width="10" x="50.0" y="130" /><rect fill="gray" height="10" stroke="none" width="10" x="40.0" y="100" /><rect fill="lightgray" height="10" stroke="none" width="10" x="30.0" y="120" /><rect fill="gray" height="10" stroke="none" width="10" x="30.0" y="130" /><g><line stroke="none" stroke-linecap="square" x1="40.0" x2="40.0" y1="110" y2="120" /><line stroke="none" stroke-linecap="square" x1="30.0" x2="30.0" y1="110" y2="120" /><line stroke="none" stroke-linecap="square" x1="70.0" x2="70.0" y1="120" y2="130" /><line stroke="none" stroke-linecap="square" x1="60.0" x2="60.0" y1="120" y2="130" /><line stroke="none" stroke-linecap="square" x1="30.0" x2="30.0" y1="100" y2="110" /><line stroke="none" stroke-linecap="square" x1="30.0" x2="40.0" y1="100" y2="100" /><line stroke="none" stroke-linecap="square" x1="40.0" x2="50.0" y1="130" y2="130" /><line stroke="none" stroke-linecap="square" x1="40.0" x2="50.0" y1="140" y2="140" /><line stroke="none" stroke-linecap="square" x1="70.0" x2="70.0" y1="130" y2="140" /><line stroke="none" stroke-linecap="square" x1="60.0" x2="70.0" y1="140" y2="140" /><line stroke="none" stroke-linecap="square" x1="70.0" x2="70.0" y1="100" y2="110" /><line stroke="none" stroke-linecap="square" x1="60.0" x2="70.0" y1="100" y2="100" /><line stroke="none" stroke-linecap="square" x1="70.0" x2="70.0" y1="110" y2="120" /><line stroke="none" stroke-linecap="square" x1="60.0" x2="60.0" y1="110" y2="120" /><line stroke="none" stroke-linecap="square" x1="50.0" x2="60.0" y1="100" y2="100" /><line stroke="none" stroke-linecap="square" x1="50.0" x2="60.0" y1="110" y2="110" /><line stroke="none" stroke-linecap="square" x1="50.0" x2="60.0" y1="130" y2="130" /><line stroke="none" stroke-linecap="square" x1="50.0" x2="60.0" y1="140" y2="140" /><line stroke="none" stroke-linecap="square" x1="40.0" x2="50.0" y1="100" y2="100" /><line stroke="none" stroke-linecap="square" x1="40.0" x2="50.0" y1="110" y2="110" /><line stroke="none" stroke-linecap="square" x1="40.0" x2="40.0" y1="120" y2="130" /><line stroke="none" stroke-linecap="square" x1="30.0" x2="30.0" y1="120" y2="130" /><line stroke="none" stroke-linecap="square" x1="30.0" x2="30.0" y1="130" y2="140" /><line stroke="none" stroke-linecap="square" x1="30.0" x2="40.0" y1="140" y2="140" /></g><rect fill="red" height="10" stroke="none" width="10" x="40.0" y="120" /><rect fill="red" height="10" stroke="none" width="10" x="40.0" y="110" /><rect fill="red" height="10" stroke="none" width="10" x="50.0" y="110" /><rect fill="red" height="10" stroke="none" width="10" x="50.0" y="120" /><g><line stroke="none" stroke-linecap="square" x1="40.0" x2="40.0" y1="120" y2="130" /><line stroke="none" stroke-linecap="square" x1="40.0" x2="50.0" y1="130" y2="130" /><line stroke="none" stroke-linecap="square" x1="40.0" x2="40.0" y1="110" y2="120" /><line stroke="none" stroke-linecap="square" x1="40.0" x2="50.0" y1="110" y2="110" /><line stroke="none" stroke-linecap="square" x1="60.0" x2="60.0" y1="110" y2="120" /><line stroke="none" stroke-linecap="square" x1="50.0" x2="60.0" y1="110" y2="110" /><line stroke="none" stroke-linecap="square" x1="60.0" x2="60.0" y1="120" y2="130" /><line stroke="none" stroke-linecap="square" x1="50.0" x2="60.0" y1="130" y2="130" /></g><text font-family="['Arial', 'Helvetica', 'sans-serif']" font-size="10" text-anchor="middle" x="50.0" y="150">0</text><line stroke="black" x1="50.0" x2="20" y1="90" y2="60" /><g /><rect fill="red" height="10" stroke="none" width="10" x="-120.0" y="210" /><rect fill="red" height="10" stroke="none" width="10" x="-110.0" y="200" /><rect fill="red" height="10" stroke="none" width="10" x="-120.0" y="200" /><rect fill="red" height="10" stroke="none" width="10" x="-110.0" y="210" /><g><line stroke="none" stroke-linecap="square" x1="-120.0" x2="-120.0" y1="210" y2="220" /><line stroke="none" stroke-linecap="square" x1="-120.0" x2="-110.0" y1="220" y2="220" /><line stroke="none" stroke-linecap="square" x1="-100.0" x2="-100.0" y1="200" y2="210" /><line stroke="none" stroke-linecap="square" x1="-110.0" x2="-100.0" y1="200" y2="200" /><line stroke="none" stroke-linecap="square" x1="-120.0" x2="-120.0" y1="200" y2="210" /><line stroke="none" stroke-linecap="square" x1="-120.0" x2="-110.0" y1="200" y2="200" /><line stroke="none" stroke-linecap="square" x1="-100.0" x2="-100.0" y1="210" y2="220" /><line stroke="none" stroke-linecap="square" x1="-110.0" x2="-100.0" y1="220" y2="220" /></g><rect fill="#16263d" height="10" stroke="none" width="10" x="-110.0" y="220" /><rect fill="#2d5f6b" height="10" stroke="none" width="10" x="-120.0" y="220" /><rect fill="#16263d" height="10" stroke="none" width="10" x="-120.0" y="230" /><rect fill="#2d5f6b" height="10" stroke="none" width="10" x="-110.0" y="230" /><g><line stroke="#2e7597" stroke-linecap="square" x1="-100.0" x2="-100.0" y1="220" y2="230" /><line stroke="#2e7597" stroke-linecap="square" x1="-110.0" x2="-100.0" y1="220" y2="220" /><line stroke="#2e7597" stroke-linecap="square" x1="-120.0" x2="-120.0" y1="220" y2="230" /><line stroke="#2e7597" stroke-linecap="square" x1="-120.0" x2="-110.0" y1="220" y2="220" /><line stroke="#2e7597" stroke-linecap="square" x1="-120.0" x2="-120.0" y1="230" y2="240" /><line stroke="#2e7597" stroke-linecap="square" x1="-120.0" x2="-110.0" y1="240" y2="240" /><line stroke="#2e7597" stroke-linecap="square" x1="-100.0" x2="-100.0" y1="230" y2="240" /><line stroke="#2e7597" stroke-linecap="square" x1="-110.0" x2="-100.0" y1="240" y2="240" /></g><rect fill="#588e28" height="10" stroke="none" width="10" x="-90.0" y="200" /><rect fill="#a8ce53" height="10" stroke="none" width="10" x="-100.0" y="200" /><rect fill="#588e28" height="10" stroke="none" width="10" x="-100.0" y="210" /><rect fill="#a8ce53" height="10" stroke="none" width="10" x="-90.0" y="210" /><g><line stroke="#4a5645" stroke-linecap="square" x1="-80.0" x2="-80.0" y1="200" y2="210" /><line stroke="#4a5645" stroke-linecap="square" x1="-90.0" x2="-80.0" y1="200" y2="200" /><line stroke="#4a5645" stroke-linecap="square" x1="-100.0" x2="-100.0" y1="200" y2="210" /><line stroke="#4a5645" stroke-linecap="square" x1="-100.0" x2="-90.0" y1="200" y2="200" /><line stroke="#4a5645" stroke-linecap="square" x1="-100.0" x2="-100.0" y1="210" y2="220" /><line stroke="#4a5645" stroke-linecap="square" x1="-100.0" x2="-90.0" y1="220" y2="220" /><line stroke="#4a5645" stroke-linecap="square" x1="-80.0" x2="-80.0" y1="210" y2="220" /><line stroke="#4a5645" stroke-linecap="square" x1="-90.0" x2="-80.0" y1="220" y2="220" /></g><text font-family="['Arial', 'Helvetica', 'sans-serif']" font-size="10" text-anchor="middle" x="-100.0" y="250">*1 + *1</text><line stroke="black" x1="-100.0" x2="-70.0" y1="190" y2="160" /><rect fill="lightgray" height="10" stroke="none" width="10" x="-60.0" y="200" /><rect fill="lightgray" height="10" stroke="none" width="10" x="-50.0" y="230" /><rect fill="gray" height="10" stroke="none" width="10" x="-50.0" y="200" /><rect fill="gray" height="10" stroke="none" width="10" x="-60.0" y="230" /><g><line stroke="none" stroke-linecap="square" x1="-60.0" x2="-60.0" y1="200" y2="210" /><line stroke="none" stroke-linecap="square" x1="-60.0" x2="-50.0" y1="200" y2="200" /><line stroke="none" stroke-linecap="square" x1="-60.0" x2="-50.0" y1="210" y2="210" /><line stroke="none" stroke-linecap="square" x1="-40.0" x2="-40.0" y1="230" y2="240" /><line stroke="none" stroke-linecap="square" x1="-50.0" x2="-40.0" y1="230" y2="230" /><line stroke="none" stroke-linecap="square" x1="-50.0" x2="-40.0" y1="240" y2="240" /><line stroke="none" stroke-linecap="square" x1="-40.0" x2="-40.0" y1="200" y2="210" /><line stroke="none" stroke-linecap="square" x1="-50.0" x2="-40.0" y1="200" y2="200" /><line stroke="none" stroke-linecap="square" x1="-50.0" x2="-40.0" y1="210" y2="210" /><line stroke="none" stroke-linecap="square" x1="-60.0" x2="-60.0" y1="230" y2="240" /><line stroke="none" stroke-linecap="square" x1="-60.0" x2="-50.0" y1="230" y2="230" /><line stroke="none" stroke-linecap="square" x1="-60.0" x2="-50.0" y1="240" y2="240" /></g><rect fill="red" height="10" stroke="none" width="10" x="-60.0" y="210" /><rect fill="red" height="10" stroke="none" width="10" x="-60.0" y="220" /><rect fill="red" height="10" stroke="none" width="10" x="-50.0" y="210" /><rect fill="red" height="10" stroke="none" width="10" x="-50.0" y="220" /><g><line stroke="none" stroke-linecap="square" x1="-60.0" x2="-60.0" y1="210" y2="220" /><line stroke="none" stroke-linecap="square" x1="-60.0" x2="-50.0" y1="210" y2="210" /><line stroke="none" stroke-linecap="square" x1="-60.0" x2="-60.0" y1="220" y2="230" /><line stroke="none" stroke-linecap="square" x1="-60.0" x2="-50.0" y1="230" y2="230" /><line stroke="none" stroke-linecap="square" x1="-40.0" x2="-40.0" y1="210" y2="220" /><line stroke="none" stroke-linecap="square" x1="-50.0" x2="-40.0" y1="210" y2="210" /><line stroke="none" stroke-linecap="square" x1="-40.0" x2="-40.0" y1="220" y2="230" /><line stroke="none" stroke-linecap="square" x1="-50.0" x2="-40.0" y1="230" y2="230" /></g><rect fill="#16263d" height="10" stroke="none" width="10" x="-30.0" y="200" /><rect fill="#2d5f6b" height="10" stroke="none" width="10" x="-40.0" y="200" /><rect fill="#16263d" height="10" stroke="none" width="10" x="-40.0" y="210" /><rect fill="#2d5f6b" height="10" stroke="none" width="10" x="-30.0" y="210" /><g><line stroke="#2e7597" stroke-linecap="square" x1="-20.0" x2="-20.0" y1="200" y2="210" /><line stroke="#2e7597" stroke-linecap="square" x1="-30.0" x2="-20.0" y1="200" y2="200" /><line stroke="#2e7597" stroke-linecap="square" x1="-40.0" x2="-40.0" y1="200" y2="210" /><line stroke="#2e7597" stroke-linecap="square" x1="-40.0" x2="-30.0" y1="200" y2="200" /><line stroke="#2e7597" stroke-linecap="square" x1="-40.0" x2="-40.0" y1="210" y2="220" /><line stroke="#2e7597" stroke-linecap="square" x1="-40.0" x2="-30.0" y1="220" y2="220" /><line stroke="#2e7597" stroke-linecap="square" x1="-20.0" x2="-20.0" y1="210" y2="220" /><line stroke="#2e7597" stroke-linecap="square" x1="-30.0" x2="-20.0" y1="220" y2="220" /></g><text font-family="['Arial', 'Helvetica', 'sans-serif']" font-size="10" text-anchor="middle" x="-40.0" y="250">*1</text><line stroke="black" x1="-40.0" x2="-70.0" y1="190" y2="160" /><line stroke="black" x1="-40.0" x2="-70.0" y1="190" y2="160" /><line stroke="black" x1="-40.0" x2="-10.0" y1="190" y2="160" /><line stroke="black" x1="-40.0" x2="-10.0" y1="190" y2="160" /><g /><rect fill="red" height="10" stroke="none" width="10" x="10.0" y="220" /><rect fill="red" height="10" stroke="none" width="10" x="0.0" y="230" /><rect fill="red" height="10" stroke="none" width="10" x="10.0" y="230" /><rect fill="red" height="10" stroke="none" width="10" x="0.0" y="220" /><g><line stroke="none" stroke-linecap="square" x1="20.0" x2="20.0" y1="220" y2="230" /><line stroke="none" stroke-linecap="square" x1="10.0" x2="20.0" y1="220" y2="220" /><line stroke="none" stroke-linecap="square" x1="0.0" x2="0.0" y1="230" y2="240" /><line stroke="none" stroke-linecap="square" x1="0.0" x2="10.0" y1="240" y2="240" /><line stroke="none" stroke-linecap="square" x1="20.0" x2="20.0" y1="230" y2="240" /><line stroke="none" stroke-linecap="square" x1="10.0" x2="20.0" y1="240" y2="240" /><line stroke="none" stroke-linecap="square" x1="0.0" x2="0.0" y1="220" y2="230" /><line stroke="none" stroke-linecap="square" x1="0.0" x2="10.0" y1="220" y2="220" /></g><rect fill="#16263d" height="10" stroke="none" width="10" x="0.0" y="210" /><rect fill="#2d5f6b" height="10" stroke="none" width="10" x="10.0" y="210" /><rect fill="#16263d" height="10" stroke="none" width="10" x="20.0" y="210" /><rect fill="#2d5f6b" height="10" stroke="none" width="10" x="30.0" y="210" /><rect fill="#16263d" height="10" stroke="none" width="10" x="30.0" y="200" /><rect fill="#2d5f6b" height="10" stroke="none" width="10" x="20.0" y="200" /><rect fill="#16263d" height="10" stroke="none" width="10" x="10.0" y="200" /><rect fill="#2d5f6b" height="10" stroke="none" width="10" x="0.0" y="200" /><g><line stroke="#2e7597" stroke-linecap="square" x1="0.0" x2="0.0" y1="210" y2="220" /><line stroke="#2e7597" stroke-linecap="square" x1="0.0" x2="10.0" y1="220" y2="220" /><line stroke="#2e7597" stroke-linecap="square" x1="10.0" x2="20.0" y1="220" y2="220" /><line stroke="#2e7597" stroke-linecap="square" x1="20.0" x2="30.0" y1="220" y2="220" /><line stroke="#2e7597" stroke-linecap="square" x1="40.0" x2="40.0" y1="210" y2="220" /><line stroke="#2e7597" stroke-linecap="square" x1="30.0" x2="40.0" y1="220" y2="220" /><line stroke="#2e7597" stroke-linecap="square" x1="40.0" x2="40.0" y1="200" y2="210" /><line stroke="#2e7597" stroke-linecap="square" x1="30.0" x2="40.0" y1="200" y2="200" /><line stroke="#2e7597" stroke-linecap="square" x1="20.0" x2="30.0" y1="200" y2="200" /><line stroke="#2e7597" stroke-linecap="square" x1="10.0" x2="20.0" y1="200" y2="200" /><line stroke="#2e7597" stroke-linecap="square" x1="0.0" x2="0.0" y1="200" y2="210" /><line stroke="#2e7597" stroke-linecap="square" x1="0.0" x2="10.0" y1="200" y2="200" /></g><text font-family="['Arial', 'Helvetica', 'sans-serif']" font-size="10" text-anchor="middle" x="20.0" y="250">*2</text><line stroke="black" x1="20.0" x2="-70.0" y1="190" y2="160" /><line stroke="black" x1="20.0" x2="-70.0" y1="190" y2="160" /><rect fill="lightgray" height="10" stroke="none" width="10" x="60.0" y="200" /><rect fill="lightgray" height="10" stroke="none" width="10" x="70.0" y="230" /><rect fill="gray" height="10" stroke="none" width="10" x="70.0" y="200" /><rect fill="gray" height="10" stroke="none" width="10" x="60.0" y="230" /><g><line stroke="none" stroke-linecap="square" x1="60.0" x2="60.0" y1="200" y2="210" /><line stroke="none" stroke-linecap="square" x1="60.0" x2="70.0" y1="200" y2="200" /><line stroke="none" stroke-linecap="square" x1="60.0" x2="70.0" y1="210" y2="210" /><line stroke="none" stroke-linecap="square" x1="80.0" x2="80.0" y1="230" y2="240" /><line stroke="none" stroke-linecap="square" x1="70.0" x2="80.0" y1="230" y2="230" /><line stroke="none" stroke-linecap="square" x1="70.0" x2="80.0" y1="240" y2="240" /><line stroke="none" stroke-linecap="square" x1="80.0" x2="80.0" y1="200" y2="210" /><line stroke="none" stroke-linecap="square" x1="70.0" x2="80.0" y1="200" y2="200" /><line stroke="none" stroke-linecap="square" x1="70.0" x2="80.0" y1="210" y2="210" /><line stroke="none" stroke-linecap="square" x1="60.0" x2="60.0" y1="230" y2="240" /><line stroke="none" stroke-linecap="square" x1="60.0" x2="70.0" y1="230" y2="230" /><line stroke="none" stroke-linecap="square" x1="60.0" x2="70.0" y1="240" y2="240" /></g><rect fill="red" height="10" stroke="none" width="10" x="60.0" y="210" /><rect fill="red" height="10" stroke="none" width="10" x="60.0" y="220" /><rect fill="red" height="10" stroke="none" width="10" x="70.0" y="210" /><rect fill="red" height="10" stroke="none" width="10" x="70.0" y="220" /><g><line stroke="none" stroke-linecap="square" x1="60.0" x2="60.0" y1="210" y2="220" /><line stroke="none" stroke-linecap="square" x1="60.0" x2="70.0" y1="210" y2="210" /><line stroke="none" stroke-linecap="square" x1="60.0" x2="60.0" y1="220" y2="230" /><line stroke="none" stroke-linecap="square" x1="60.0" x2="70.0" y1="230" y2="230" /><line stroke="none" stroke-linecap="square" x1="80.0" x2="80.0" y1="210" y2="220" /><line stroke="none" stroke-linecap="square" x1="70.0" x2="80.0" y1="210" y2="210" /><line stroke="none" stroke-linecap="square" x1="80.0" x2="80.0" y1="220" y2="230" /><line stroke="none" stroke-linecap="square" x1="70.0" x2="80.0" y1="230" y2="230" /></g><text font-family="['Arial', 'Helvetica', 'sans-serif']" font-size="10" text-anchor="middle" x="80.0" y="250">0</text><line stroke="black" x1="80.0" x2="-10.0" y1="190" y2="160" /><g /><rect fill="red" height="10" stroke="none" width="10" x="-60.0" y="310" /><rect fill="red" height="10" stroke="none" width="10" x="-50.0" y="300" /><rect fill="red" height="10" stroke="none" width="10" x="-60.0" y="300" /><rect fill="red" height="10" stroke="none" width="10" x="-50.0" y="310" /><g><line stroke="none" stroke-linecap="square" x1="-60.0" x2="-60.0" y1="310" y2="320" /><line stroke="none" stroke-linecap="square" x1="-60.0" x2="-50.0" y1="320" y2="320" /><line stroke="none" stroke-linecap="square" x1="-40.0" x2="-40.0" y1="300" y2="310" /><line stroke="none" stroke-linecap="square" x1="-50.0" x2="-40.0" y1="300" y2="300" /><line stroke="none" stroke-linecap="square" x1="-60.0" x2="-60.0" y1="300" y2="310" /><line stroke="none" stroke-linecap="square" x1="-60.0" x2="-50.0" y1="300" y2="300" /><line stroke="none" stroke-linecap="square" x1="-40.0" x2="-40.0" y1="310" y2="320" /><line stroke="none" stroke-linecap="square" x1="-50.0" x2="-40.0" y1="320" y2="320" /></g><text font-family="['Arial', 'Helvetica', 'sans-serif']" font-size="10" text-anchor="middle" x="-40.0" y="350">0</text><line stroke="black" x1="-40.0" x2="-40.0" y1="290" y2="260" /><line stroke="black" x1="-40.0" x2="20.0" y1="290" y2="260" /><g /><rect fill="red" height="10" stroke="none" width="10" x="0.0" y="310" /><rect fill="red" height="10" stroke="none" width="10" x="10.0" y="300" /><rect fill="red" height="10" stroke="none" width="10" x="0.0" y="300" /><rect fill="red" height="10" stroke="none" width="10" x="10.0" y="310" /><g><line stroke="none" stroke-linecap="square" x1="0.0" x2="0.0" y1="310" y2="320" /><line stroke="none" stroke-linecap="square" x1="0.0" x2="10.0" y1="320" y2="320" /><line stroke="none" stroke-linecap="square" x1="20.0" x2="20.0" y1="300" y2="310" /><line stroke="none" stroke-linecap="square" x1="10.0" x2="20.0" y1="300" y2="300" /><line stroke="none" stroke-linecap="square" x1="0.0" x2="0.0" y1="300" y2="310" /><line stroke="none" stroke-linecap="square" x1="0.0" x2="10.0" y1="300" y2="300" /><line stroke="none" stroke-linecap="square" x1="20.0" x2="20.0" y1="310" y2="320" /><line stroke="none" stroke-linecap="square" x1="10.0" x2="20.0" y1="320" y2="320" /></g><rect fill="#16263d" height="10" stroke="none" width="10" x="10.0" y="320" /><rect fill="#2d5f6b" height="10" stroke="none" width="10" x="0.0" y="320" /><rect fill="#16263d" height="10" stroke="none" width="10" x="0.0" y="330" /><rect fill="#2d5f6b" height="10" stroke="none" width="10" x="10.0" y="330" /><g><line stroke="#2e7597" stroke-linecap="square" x1="20.0" x2="20.0" y1="320" y2="330" /><line stroke="#2e7597" stroke-linecap="square" x1="10.0" x2="20.0" y1="320" y2="320" /><line stroke="#2e7597" stroke-linecap="square" x1="0.0" x2="0.0" y1="320" y2="330" /><line stroke="#2e7597" stroke-linecap="square" x1="0.0" x2="10.0" y1="320" y2="320" /><line stroke="#2e7597" stroke-linecap="square" x1="0.0" x2="0.0" y1="330" y2="340" /><line stroke="#2e7597" stroke-linecap="square" x1="0.0" x2="10.0" y1="340" y2="340" /><line stroke="#2e7597" stroke-linecap="square" x1="20.0" x2="20.0" y1="330" y2="340" /><line stroke="#2e7597" stroke-linecap="square" x1="10.0" x2="20.0" y1="340" y2="340" /></g><text font-family="['Arial', 'Helvetica', 'sans-serif']" font-size="10" text-anchor="middle" x="20.0" y="350">*1</text><line stroke="black" x1="20.0" x2="20.0" y1="290" y2="260" /><line stroke="black" x1="20.0" x2="20.0" y1="290" y2="260" /></svg>